<?xml version="1.0" encoding="UTF-8" standalone="no"?>
<!-- Generator: Adobe Illustrator 16.0.0, SVG Export Plug-In . SVG Version: 6.00 Build 0)  -->

<svg
   xmlns:dc="http://purl.org/dc/elements/1.1/"
   xmlns:cc="http://creativecommons.org/ns#"
   xmlns:rdf="http://www.w3.org/1999/02/22-rdf-syntax-ns#"
   xmlns:svg="http://www.w3.org/2000/svg"
   xmlns="http://www.w3.org/2000/svg"
   xmlns:sodipodi="http://sodipodi.sourceforge.net/DTD/sodipodi-0.dtd"
   xmlns:inkscape="http://www.inkscape.org/namespaces/inkscape"
   version="1.1"
   id="图层_1"
   x="0px"
   y="0px"
   width="100px"
   height="100px"
   viewBox="0 0 100 100"
   enable-background="new 0 0 100 100"
   xml:space="preserve"
   inkscape:version="0.91 r13725"
   sodipodi:docname="zoomin.svg"><metadata
     id="metadata4162"><rdf:RDF><cc:Work
         rdf:about=""><dc:format>image/svg+xml</dc:format><dc:type
           rdf:resource="http://purl.org/dc/dcmitype/StillImage" /><dc:title /></cc:Work></rdf:RDF></metadata><defs
     id="defs4160"><style
       type="text/css"
       id="style3344"><![CDATA[
@font-face { font-family: ifont; src: url("http://at.alicdn.com/t/font_1442373896_4754455.eot?#iefix") format("embedded-opentype"), url("http://at.alicdn.com/t/font_1442373896_4754455.woff") format("woff"), url("http://at.alicdn.com/t/font_1442373896_4754455.ttf") format("truetype"), url("http://at.alicdn.com/t/font_1442373896_4754455.svg#ifont") format("svg"); }

]]></style><style
       id="style4159"
       type="text/css" /><style
       id="style4142"
       type="text/css" /></defs><sodipodi:namedview
     pagecolor="#ffffff"
     bordercolor="#666666"
     borderopacity="1"
     objecttolerance="10"
     gridtolerance="10"
     guidetolerance="10"
     inkscape:pageopacity="0"
     inkscape:pageshadow="2"
     inkscape:window-width="1366"
     inkscape:window-height="706"
     id="namedview4158"
     showgrid="false"
     inkscape:zoom="3.337544"
     inkscape:cx="28.522885"
     inkscape:cy="42.37631"
     inkscape:window-x="-8"
     inkscape:window-y="-8"
     inkscape:window-maximized="1"
     inkscape:current-layer="图层_1" /><path
     d="M100,94c0,3.313-2.688,6-6,6H6c-3.313,0-6-2.688-6-6V6c0-3.313,2.687-6,6-6h88c3.313,0,6,2.687,6,6V94z"
     id="path4150"
     style="fill:#5d8fc2;fill-opacity:1"
     fill="#5BA8B9" /><g
     id="g4170"
     transform="matrix(0.07341402,0,0,0.07341402,12.956156,12.966728)"><path
       id="path4161"
       p-id="4094"
       d="M 964.84267,885.93067 829.03467,750.16533 C 888.21333,674.21867 923.84,579.072 923.84,475.56267 c 0,-247.04 -200.98133,-448.000003 -448,-448.000003 -247.04,0 -448,200.960003 -448,448.000003 0,247.01866 200.96,448 448,448 103.36,0 198.4,-35.52 274.26133,-94.57067 l 135.82934,135.82933 c 21.93066,21.90934 57.36533,22.016 79.14666,0.256 21.78134,-21.80266 21.65334,-57.19466 -0.23466,-79.14666 z m -851.66934,-410.368 c 0,-199.97867 162.688,-362.66667 362.66667,-362.66667 199.97867,0 362.66667,162.688 362.66667,362.66667 0,199.97866 -162.688,362.66666 -362.66667,362.66666 -199.97867,0 -362.66667,-162.688 -362.66667,-362.66666 z"
       inkscape:connector-curvature="0"
       style="fill:#ffffff" /><path
       id="path4163"
       p-id="4095"
       d="m 626.79467,432.896 -108.288,0 0,-108.30933 c 0,-22.656 -19.11467,-41.024 -42.66667,-41.024 -23.57333,0 -42.66667,18.34666 -42.66667,41.024 l 0,108.30933 -108.30933,0 c -22.656,0 -41.024,19.11467 -41.024,42.688 0,23.57333 18.34667,42.66667 41.024,42.66667 l 108.30933,0 0,108.288 c 0,22.656 19.09334,41.04533 42.66667,41.04533 23.552,0 42.66667,-18.368 42.66667,-41.04533 l 0,-108.288 108.288,0 c 22.656,0 41.04533,-19.09334 41.04533,-42.66667 0,-23.57333 -18.38933,-42.688 -41.04533,-42.688 z"
       inkscape:connector-curvature="0"
       style="fill:#ffffff" /></g><path
     id="path4144"
     p-id="1901"
     d="m 100.51479,46.565222 c 0,-0.856861 -0.3274,-1.713494 -0.981502,-2.368284 -0.654105,-0.65422 -1.508688,-0.981159 -2.363379,-0.981159 l -5.112317,0 c -2.118887,0 -4.360251,-1.653055 -4.990409,-3.674329 l -2.650977,-6.440254 c -0.996323,-1.862766 -0.586025,-4.611243 0.90316,-6.107955 l 3.628032,-3.622671 c 0.605184,-0.605755 0.981499,-1.442774 0.981499,-2.36817 0,-0.925396 -0.371528,-1.762642 -0.981499,-2.37045 l -6.157559,-6.147297 c -0.605184,-0.605756 -1.440039,-0.978879 -2.363387,-0.978879 -0.922885,0 -1.762639,0.375974 -2.36771,0.978879 l -3.628031,3.627461 c -1.4893,1.494545 -4.247925,1.904958 -6.113546,0.903615 L 61.881817,14.367032 C 59.870235,13.741663 58.210109,11.495967 58.210109,9.3793592 l 0,-5.119497 c 0,-0.854466 -0.327395,-1.711327 -0.981613,-2.365433 -0.654105,-0.65422 -1.508688,-0.981501 -2.36338,-0.981501 l -8.696327,0 c -0.859597,0 -1.713493,0.327281 -2.368283,0.981501 -0.654221,0.654106 -0.980931,1.510967 -0.980931,2.365433 l 0,5.119498 c 0,2.1166068 -1.645529,4.3628728 -3.667373,4.9876718 l -6.440254,2.648697 c -1.869836,1.001115 -4.614093,0.595834 -6.103622,-0.903159 l -3.642284,-3.625294 c -0.605755,-0.605642 -1.445509,-0.976598 -2.368286,-0.976598 -0.922771,0 -1.757624,0.375974 -2.363379,0.978878 l -6.142393,6.142394 c -0.605641,0.605755 -0.976598,1.440607 -0.981499,2.365661 0,0.923229 0.375972,1.760362 0.981499,2.366003 l 3.623353,3.629855 c 1.498994,1.499563 1.909069,4.24576 0.903047,6.108525 l -2.651434,6.444701 c -0.6248,2.021845 -2.866159,3.674558 -4.9849319,3.674558 l -5.117446,-0.005 c -0.859484,0 -1.714181,0.327394 -2.368286,0.981501 -0.65410405,0.65422 -0.98149905,1.510967 -0.98149905,2.367713 l 0,8.693702 c 0,0.856746 0.327395,1.714182 0.98149905,2.368286 0.654105,0.651937 1.508688,0.978767 2.368286,0.978767 l 5.117446,0 c 2.1187729,0.0051 4.3551159,1.657501 4.9804869,3.674556 l 2.655765,6.4398 c 0.996328,1.86755 0.591045,4.62435 -0.903047,6.11331 l -3.633047,3.62279 c -0.605184,0.60519 -0.981499,1.44289 -0.981499,2.37045 0,0.92277 0.376315,1.76253 0.981499,2.36829 l 6.157559,6.14729 c 0.60519,0.60518 1.440037,0.97888 2.363385,0.97888 0.922771,0 1.762639,-0.3737 2.367709,-0.97888 l 3.633053,-3.62529 c 1.488955,-1.49181 4.233213,-1.902 6.093241,-0.89096 l 6.454965,2.6487 c 2.021844,0.62742 3.667373,2.86821 3.667373,4.98755 l 0,5.09977 c 0,0.85687 0.327281,1.7135 0.9815,2.36772 0.654107,0.651942 1.508687,0.979222 2.3676,0.979222 l 8.691426,0 c 0.859593,0 1.714176,-0.32728 2.36828,-0.979222 0.654219,-0.65422 0.981614,-1.51097 0.981614,-2.36772 l 0,-5.09977 c 0,-2.11923 1.660126,-4.36013 3.672164,-4.98755 l 6.445271,-2.6487 c 1.864935,-1.01092 4.618882,-0.60085 6.117876,0.89096 l 3.608529,3.62278 c 0.605755,0.60781 1.440038,0.98641 2.368286,0.98641 0.922886,0.002 1.762642,-0.37085 2.367718,-0.97888 l 6.157559,-6.15209 c 0.609971,-0.60792 0.981499,-1.44551 0.981499,-2.37091 0,-0.92471 -0.376315,-1.76252 -0.981499,-2.36759 l -3.628032,-3.62279 c -1.4893,-1.48896 -1.899483,-4.24576 -0.903161,-6.11332 l 2.651548,-6.43979 c 0.629588,-2.017058 2.880874,-3.669431 4.99041,-3.669431 l 5.11186,0 c 0.854577,0 1.709274,-0.326824 2.363379,-0.981499 0.654102,-0.654224 0.981502,-1.51097 0.981502,-2.3684 l 0,-8.696669 0,0 0,0 z m -28.704497,4.226373 c 0,11.819182 -9.577934,21.391752 -21.394716,21.391752 -11.822262,0 -21.400195,-9.57245 -21.400195,-21.391752 0,-11.816216 9.577933,-21.394149 21.400195,-21.394149 11.816782,-1.14e-4 21.394716,9.577933 21.394716,21.394149"
     inkscape:connector-curvature="0" /></svg>